<?xml version="1.0" encoding="UTF-8"?><svg id="uuid-5f681f65-1a91-4731-acf4-43bf83cc15a9" xmlns="http://www.w3.org/2000/svg" viewBox="0 0 1000 1000"><defs><style>.uuid-34a11620-9a09-4b97-be9d-6b263273fb7b{fill:none;stroke:#e6be91;stroke-linecap:round;stroke-miterlimit:10;stroke-width:10px;}</style></defs><g><path d="M378.43,673.87c-.14,.28-.36,.42-.66,.42-.22,0-.5-.13-.85-.38-.35-.25-.81-.53-1.38-.84-.57-.31-1.27-.59-2.1-.84s-1.84-.38-3.04-.38c-1.08,0-2.07,.15-2.96,.46s-1.65,.72-2.28,1.24c-.63,.52-1.12,1.12-1.47,1.81-.35,.69-.52,1.41-.52,2.17,0,.94,.24,1.72,.72,2.33s1.11,1.15,1.89,1.58c.78,.44,1.67,.82,2.66,1.14s2,.64,3.04,.96c1.04,.32,2.05,.68,3.04,1.07s1.88,.88,2.66,1.46,1.41,1.29,1.89,2.13c.48,.84,.72,1.86,.72,3.06,0,1.3-.24,2.51-.71,3.63-.47,1.12-1.15,2.09-2.04,2.91-.89,.82-1.99,1.47-3.29,1.95-1.3,.48-2.78,.72-4.44,.72-2.1,0-3.91-.34-5.43-1.01-1.52-.67-2.88-1.54-4.08-2.63l.69-1.02c.1-.16,.21-.28,.33-.36,.12-.08,.29-.12,.51-.12,.26,0,.58,.16,.96,.48,.38,.32,.88,.67,1.48,1.04,.61,.37,1.37,.71,2.28,1.04,.91,.32,2.04,.48,3.38,.48,1.26,0,2.37-.17,3.33-.52,.96-.35,1.76-.83,2.4-1.43,.64-.6,1.13-1.3,1.46-2.11,.33-.81,.5-1.67,.5-2.57,0-1-.24-1.83-.72-2.49-.48-.66-1.11-1.22-1.89-1.68s-1.67-.85-2.66-1.17-2.01-.64-3.06-.96-2.07-.67-3.06-1.05c-.99-.38-1.88-.86-2.65-1.44-.78-.58-1.41-1.29-1.89-2.12-.48-.83-.72-1.86-.72-3.1,0-1.06,.23-2.08,.69-3.06,.46-.98,1.12-1.84,1.97-2.58,.85-.74,1.88-1.33,3.1-1.77,1.22-.44,2.59-.66,4.11-.66,1.82,0,3.43,.26,4.84,.79s2.71,1.33,3.88,2.42l-.63,.99Z"/><path d="M422.44,674.14c-.1,.1-.19,.19-.29,.25-.09,.07-.21,.11-.38,.11-.2,0-.47-.13-.82-.41-.35-.27-.82-.56-1.4-.88-.58-.32-1.3-.62-2.17-.88-.87-.27-1.92-.41-3.17-.41-1.72,0-3.25,.31-4.58,.92-1.33,.61-2.45,1.49-3.36,2.63-.91,1.14-1.61,2.52-2.09,4.14-.48,1.62-.72,3.44-.72,5.46s.25,3.96,.74,5.58c.49,1.62,1.18,2.99,2.08,4.1,.9,1.11,1.99,1.96,3.27,2.53,1.28,.58,2.7,.87,4.26,.87,1.44,0,2.64-.17,3.61-.51,.97-.34,1.77-.71,2.4-1.11,.63-.4,1.13-.77,1.5-1.11s.67-.51,.88-.51c.26,0,.46,.1,.6,.3l.78,.96c-.46,.6-1.04,1.16-1.74,1.68-.7,.52-1.49,.97-2.37,1.35-.88,.38-1.84,.67-2.87,.88-1.03,.21-2.11,.31-3.22,.31-1.9,0-3.64-.34-5.21-1.03-1.57-.69-2.92-1.69-4.05-3-1.13-1.31-2.01-2.92-2.64-4.82-.63-1.9-.95-4.06-.95-6.48,0-2.28,.3-4.36,.9-6.24s1.47-3.5,2.63-4.86c1.15-1.36,2.56-2.42,4.23-3.17s3.59-1.13,5.75-1.13c1.94,0,3.67,.31,5.18,.93,1.51,.62,2.82,1.46,3.94,2.52l-.75,1.02Z"/><path d="M445.09,700v-43.65h2.85v18.9c1.38-1.7,2.96-3.05,4.72-4.07,1.77-1.01,3.75-1.51,5.96-1.51,1.64,0,3.08,.26,4.33,.78s2.29,1.27,3.11,2.25c.82,.98,1.44,2.16,1.86,3.54,.42,1.38,.63,2.94,.63,4.68v19.08h-2.85v-19.08c0-2.8-.64-5-1.92-6.58s-3.24-2.38-5.88-2.38c-1.96,0-3.78,.5-5.46,1.51-1.68,1.01-3.18,2.4-4.5,4.16v22.38h-2.85Z"/><path d="M496.24,656.35v43.65h-2.85v-43.65h2.85Z"/><path d="M540.85,700c-.6,0-.97-.28-1.11-.84l-.42-3.81c-.82,.8-1.63,1.52-2.45,2.16-.81,.64-1.65,1.18-2.53,1.62-.88,.44-1.83,.78-2.85,1-1.02,.23-2.14,.35-3.36,.35-1.02,0-2.01-.15-2.97-.45s-1.81-.76-2.55-1.38-1.33-1.42-1.79-2.39c-.45-.97-.67-2.13-.67-3.5,0-1.26,.36-2.43,1.08-3.51s1.84-2.02,3.38-2.82,3.5-1.44,5.91-1.92c2.41-.48,5.3-.76,8.68-.84v-3.12c0-2.76-.59-4.88-1.79-6.38-1.19-1.49-2.96-2.23-5.29-2.23-1.44,0-2.67,.2-3.67,.6-1.01,.4-1.87,.84-2.56,1.32-.7,.48-1.27,.92-1.71,1.32-.44,.4-.81,.6-1.11,.6-.4,0-.7-.18-.9-.54l-.51-.87c1.56-1.56,3.2-2.74,4.92-3.54,1.72-.8,3.67-1.2,5.85-1.2,1.6,0,3,.25,4.2,.77,1.2,.51,2.2,1.24,2.99,2.19,.79,.95,1.38,2.1,1.79,3.45,.4,1.35,.6,2.86,.6,4.51v19.44h-1.14Zm-12-1.59c1.16,0,2.22-.13,3.2-.38,.97-.25,1.87-.6,2.7-1.05,.83-.45,1.61-.99,2.33-1.61,.72-.62,1.43-1.29,2.13-2.01v-7.77c-2.84,.08-5.29,.3-7.33,.65s-3.74,.83-5.07,1.42c-1.33,.6-2.31,1.32-2.94,2.15s-.95,1.77-.95,2.83c0,1,.17,1.87,.5,2.59,.33,.73,.77,1.33,1.3,1.8,.54,.47,1.17,.82,1.89,1.04,.72,.22,1.47,.33,2.25,.33Z"/><path d="M567.1,700v-26.73l-4.2-.27c-.58-.04-.87-.29-.87-.75v-1.17h5.07v-3.78c0-1.7,.22-3.19,.66-4.48,.44-1.29,1.06-2.37,1.86-3.23,.8-.86,1.76-1.5,2.89-1.93s2.38-.65,3.74-.65c.62,0,1.25,.06,1.88,.17,.63,.11,1.18,.27,1.67,.46l-.09,1.38c-.02,.28-.21,.42-.57,.42-.24,0-.57-.03-.97-.09-.41-.06-.92-.09-1.52-.09-.98,0-1.88,.15-2.71,.44s-1.54,.75-2.14,1.39c-.6,.64-1.07,1.48-1.4,2.5-.33,1.03-.5,2.29-.5,3.79v3.69h9.69v2.13h-9.63v26.79h-2.85Z"/><path d="M611.56,669.67c1.68,0,3.23,.29,4.67,.87,1.43,.58,2.67,1.42,3.72,2.54,1.05,1.11,1.87,2.47,2.46,4.09s.88,3.48,.88,5.58c0,.44-.07,.74-.2,.9-.13,.16-.33,.24-.61,.24h-21.54v.57c0,2.24,.26,4.21,.78,5.91,.52,1.7,1.26,3.13,2.22,4.27,.96,1.15,2.12,2.02,3.48,2.6s2.88,.87,4.56,.87c1.5,0,2.8-.17,3.9-.5s2.03-.7,2.78-1.11c.75-.41,1.34-.78,1.79-1.11,.44-.33,.76-.49,.96-.49,.26,0,.46,.1,.6,.3l.78,.96c-.48,.6-1.12,1.16-1.91,1.68-.79,.52-1.67,.96-2.64,1.33-.97,.37-2.01,.67-3.12,.88-1.11,.22-2.23,.33-3.34,.33-2.04,0-3.9-.35-5.58-1.06-1.68-.71-3.12-1.75-4.33-3.11-1.2-1.36-2.13-3.02-2.79-5-.66-1.97-.99-4.22-.99-6.76,0-2.14,.3-4.11,.92-5.92,.61-1.81,1.49-3.37,2.64-4.68,1.15-1.31,2.56-2.33,4.23-3.08s3.57-1.11,5.69-1.11Zm.04,2.13c-1.54,0-2.92,.24-4.13,.72-1.22,.48-2.27,1.17-3.16,2.07-.89,.9-1.61,1.98-2.16,3.24s-.91,2.67-1.09,4.23h19.65c0-1.6-.22-3.03-.66-4.3-.44-1.27-1.06-2.34-1.86-3.22s-1.76-1.55-2.88-2.03c-1.12-.47-2.36-.71-3.71-.71Z"/><path d="M645.97,700v-29.85h1.56c.52,0,.82,.25,.9,.75l.27,4.5c1.36-1.72,2.95-3.11,4.75-4.16,1.81-1.05,3.83-1.58,6.04-1.58,1.64,0,3.08,.26,4.33,.78s2.29,1.27,3.11,2.25c.82,.98,1.44,2.16,1.86,3.54,.42,1.38,.63,2.94,.63,4.68v19.08h-2.85v-19.08c0-2.8-.64-5-1.92-6.58s-3.24-2.38-5.88-2.38c-1.96,0-3.78,.5-5.46,1.51-1.68,1.01-3.18,2.4-4.5,4.16v22.38h-2.85Z"/></g><g><path d="M338.03,567.7h10.85c1.17,0,2.12,.28,2.85,.85,.73,.57,1.28,1.3,1.65,2.2l17,44.1c.57,1.43,1.11,3.01,1.63,4.73s1.01,3.52,1.48,5.42c.77-3.83,1.72-7.22,2.85-10.15l16.95-44.1c.3-.77,.83-1.47,1.6-2.1s1.72-.95,2.85-.95h10.85l-29.2,72.3h-12.15l-29.2-72.3Z"/><path d="M426.79,640h-10.8v-57.84h10.8v57.84Z"/><path d="M480.55,582.16v8.84h-17.4v49h-10.76v-49h-17.48v-8.84h45.64Z"/><path d="M532.35,640h-8.32c-.93,0-1.7-.23-2.3-.7-.6-.47-1.03-1.05-1.3-1.74l-4.32-11.8h-23.96l-4.32,11.8c-.21,.61-.63,1.17-1.26,1.68-.63,.51-1.39,.76-2.3,.76h-8.36l22.72-57.84h11l22.72,57.84Zm-37.44-21.84h18.44l-7.04-19.24c-.32-.85-.67-1.86-1.06-3.02-.39-1.16-.77-2.42-1.14-3.78-.37,1.36-.74,2.63-1.1,3.8-.36,1.17-.71,2.2-1.06,3.08l-7.04,19.16Z"/><path d="M549.07,631.12h23.16v8.88h-33.92v-57.84h10.76v48.96Z"/><path d="M616.15,582.16v8.56h-25.64v16.04h20.2v8.28h-20.2v16.36h25.64v8.6h-36.48v-57.84h36.48Z"/><path d="M636.59,617.4v22.6h-10.76v-57.84h17.64c3.95,0,7.33,.41,10.14,1.22,2.81,.81,5.12,1.95,6.92,3.42,1.8,1.47,3.12,3.22,3.96,5.26,.84,2.04,1.26,4.29,1.26,6.74,0,1.95-.29,3.79-.86,5.52s-1.4,3.31-2.48,4.72c-1.08,1.41-2.41,2.65-4,3.72-1.59,1.07-3.39,1.92-5.42,2.56,1.36,.77,2.53,1.88,3.52,3.32l14.48,21.36h-9.68c-.93,0-1.73-.19-2.38-.56-.65-.37-1.21-.91-1.66-1.6l-12.16-18.52c-.45-.69-.95-1.19-1.5-1.48-.55-.29-1.35-.44-2.42-.44h-4.6Zm0-7.72h6.72c2.03,0,3.79-.25,5.3-.76,1.51-.51,2.75-1.21,3.72-2.1,.97-.89,1.7-1.95,2.18-3.18,.48-1.23,.72-2.57,.72-4.04,0-2.93-.97-5.19-2.9-6.76-1.93-1.57-4.89-2.36-8.86-2.36h-6.88v19.2Z"/></g><g><path class="uuid-34a11620-9a09-4b97-be9d-6b263273fb7b" d="M558.5,398.64c0,78.1-55.23,101.87-55.23,101.87,0,0-55.04-23.78-55.04-101.87s55.14-141.41,55.14-141.41c0,0,55.14,63.31,55.14,141.41Z"/><path class="uuid-34a11620-9a09-4b97-be9d-6b263273fb7b" d="M520.04,422.95c20.21,58.56-16.66,78.46-16.66,78.46,0,0-69.64,2.25-89.85-56.31-20.21-58.56,16.66-117.1,16.66-117.1,0,0,69.64,36.39,89.85,94.95Z"/><path class="uuid-34a11620-9a09-4b97-be9d-6b263273fb7b" d="M593.18,445.1c-20.21,58.56-89.85,56.31-89.85,56.31,0,0-36.87-19.9-16.66-78.46,20.21-58.56,89.85-94.95,89.85-94.95,0,0,36.87,58.55,16.66,117.1Z"/></g></svg>